<?xml version="1.0" encoding="UTF-8"?>
<svg version="1.1" xmlns="http://www.w3.org/2000/svg" xmlns:xlink="http://www.w3.org/1999/xlink">
<defs>
<clipPath id="clip0_78_21608"><path fill="#fff" d="M0 0h24v24H0z"/></clipPath>
<filter id="filter0_d" x=".2" y=".518" width="93.6" height="93.6" filterUnits="userSpaceOnUse" color-interpolation-filters="sRGB"><feFlood flood-opacity="0" result="BackgroundImageFix"/><feColorMatrix in="SourceAlpha" values="0 0 0 0 0 0 0 0 0 0 0 0 0 0 0 0 0 0 127 0" result="hardAlpha"/><feOffset dy="5.318"/><feGaussianBlur stdDeviation="8.4"/><feColorMatrix values="0 0 0 0 0 0 0 0 0 0 0 0 0 0 0 0 0 0 0.15 0"/><feBlend in2="BackgroundImageFix" result="effect1_dropShadow"/><feBlend in="SourceGraphic" in2="effect1_dropShadow" result="shape"/></filter>
<clipPath id="clip0_109_14939"><path fill="#fff" d="M0 0h20v20H0z"/></clipPath>
</defs>
<symbol id="i-3d-box" viewBox="0 0 27 28" fill="none" xmlns="http://www.w3.org/2000/svg"><path d="M24 19.1V8.877a2.557 2.557 0 00-1.278-2.21l-8.944-5.111a2.556 2.556 0 00-2.556 0l-8.944 5.11A2.556 2.556 0 001 8.878V19.1a2.556 2.556 0 001.278 2.21l8.944 5.111a2.556 2.556 0 002.556 0l8.944-5.11A2.556 2.556 0 0024 19.1z" stroke="currentColor" stroke-width="1.2" stroke-linecap="round" stroke-linejoin="round"/><path d="M1.345 7.549L12.5 14 23.655 7.55M12.5 26.869v-12.88" stroke="currentColor" stroke-width="1.2" stroke-linecap="round" stroke-linejoin="round"/></symbol>
<symbol id="i-left" viewBox="0 0 16 17" fill="none" xmlns="http://www.w3.org/2000/svg"><path d="M10 4.558l-4 4 4 4" stroke="#000" stroke-width="1.5" stroke-linecap="round" stroke-linejoin="round"/></symbol>
<symbol id="i-alert-circle-thin" viewBox="0 0 93 92" fill="none" xmlns="http://www.w3.org/2000/svg"><path d="M46.5 91c24.853 0 45-20.147 45-45S71.353 1 46.5 1s-45 20.147-45 45 20.147 45 45 45z" stroke="#000" stroke-width="1.5" stroke-linecap="round" stroke-linejoin="round"/><path d="M46.5 28v27.692" stroke="currentcolor" stroke-width="1.5" stroke-linecap="round" stroke-linejoin="round"/><path d="M46.5 64h.045" stroke="currentcolor" stroke-width="2.25" stroke-linecap="round" stroke-linejoin="round"/></symbol>
<symbol id="i-alert-circle" viewBox="0 0 24 24" fill="none" xmlns="http://www.w3.org/2000/svg"><path d="M12 22c5.523 0 10-4.477 10-10S17.523 2 12 2 2 6.477 2 12s4.477 10 10 10zM12 8v4M12 16h.01" stroke="currentcolor" stroke-width="2" stroke-linecap="round" stroke-linejoin="round"/></symbol>
<symbol id="i-arrow-back" viewBox="0 0 24 24" fill="none" xmlns="http://www.w3.org/2000/svg"><path fill-rule="evenodd" clip-rule="evenodd" d="M12.707 5.707a1 1 0 00-1.414-1.414l-7 7a1 1 0 000 1.414l7 7a1 1 0 001.414-1.414L7.414 13H19a1 1 0 100-2H7.414l5.293-5.293z" fill="currentcolor"/></symbol>
<symbol id="i-arrow-check" viewBox="0 0 18 13" fill="none" xmlns="http://www.w3.org/2000/svg"><path d="M17 1L6 12 1 7" stroke="currentColor" stroke-width="2" stroke-linecap="round" stroke-linejoin="round"/></symbol>
<symbol id="i-arrow-down" viewBox="0 0 16 16" fill="none" xmlns="http://www.w3.org/2000/svg"><path d="M4 6l4 4 4-4" stroke="currentColor" stroke-width="1.5" stroke-linecap="round" stroke-linejoin="round"/></symbol>
<symbol id="i-arrow-right-no-background" viewBox="0 0 25 8" fill="none" xmlns="http://www.w3.org/2000/svg"><path d="M24.354 4.354a.5.5 0 000-.708L21.172.464a.5.5 0 10-.707.708L23.293 4l-2.828 2.828a.5.5 0 10.707.708l3.182-3.182zM0 4.5h24v-1H0v1z" fill="currentcolor"/></symbol>
<symbol id="i-arrow-right-rounded-corner" viewBox="0 0 35 35" fill="none" xmlns="http://www.w3.org/2000/svg"><path d="M7.292 17.5h20.417M17.5 7.292L27.708 17.5 17.5 27.71" stroke="currentColor" stroke-width="4" stroke-linecap="round" stroke-linejoin="round"/></symbol>
<symbol id="i-arrow-right-thin" viewBox="0 0 18 12" fill="none" xmlns="http://www.w3.org/2000/svg"><path d="M1 6h16m0 0l-5-5m5 5l-5 5" stroke="currentColor" stroke-linecap="round" stroke-linejoin="round"/></symbol>
<symbol id="i-arrow-tailless" viewBox="0 0 6 10" xmlns="http://www.w3.org/2000/svg"><path d="M1 9l4-4-4-4" stroke="currentColor" stroke-width="1.3" stroke-linecap="round" stroke-linejoin="round" fill="none"/></symbol>
<symbol id="i-arrow-to-right" viewBox="0 0 25 8" fill="none" xmlns="http://www.w3.org/2000/svg"><path d="M24.354 4.354a.5.5 0 000-.708L21.172.464a.5.5 0 10-.707.708L23.293 4l-2.828 2.828a.5.5 0 10.707.708l3.182-3.182zM0 4.5h24v-1H0v1z" fill="currentColor"/></symbol>
<symbol id="i-blog-circle" viewBox="0 0 56 56" fill="none" xmlns="http://www.w3.org/2000/svg"><path d="M46.335 26.313V28a18.333 18.333 0 11-10.872-16.757" stroke="currentColor" stroke-width="2.5" stroke-linecap="round" stroke-linejoin="round"/><path d="M46.333 13.333L28 31.685l-5.5-5.5" stroke="currentColor" stroke-width="2.5" stroke-linecap="round" stroke-linejoin="round"/></symbol>
<symbol id="i-check-circle" viewBox="0 0 25 24" fill="none" xmlns="http://www.w3.org/2000/svg"><path d="M22.5 11.078v.92a10 10 0 11-5.93-9.14" stroke="currentcolor" stroke-width="1.5" stroke-linecap="round" stroke-linejoin="round"/><path d="M22.5 4.002l-10 10.01-3-3" stroke="currentcolor" stroke-width="1.5" stroke-linecap="round" stroke-linejoin="round"/></symbol>
<symbol id="i-check-mark-thick" viewBox="0 0 14 11" fill="none" xmlns="http://www.w3.org/2000/svg"><path d="M12 2.006L5.187 8.818 2.091 5.722" stroke="currentColor" stroke-width="2.555" stroke-linecap="round" stroke-linejoin="round"/></symbol>
<symbol id="i-check-with-background" viewBox="0 0 16 16" fill="none" xmlns="http://www.w3.org/2000/svg"><path fill-rule="evenodd" clip-rule="evenodd" d="M8 16A8 8 0 108 0a8 8 0 000 16zm-.232-4.36l5-6-1.536-1.28L6.9 9.558 4.673 7.533l-1.346 1.48 3 2.727.773.702.668-.802z" fill="currentcolor"/></symbol>
<symbol id="i-checked" viewBox="0 0 24 24" fill="none" xmlns="http://www.w3.org/2000/svg"><circle cx="12" cy="12" r="12" fill="#583BB6"/><path d="M7 12.278l3.706 3.706a.3.3 0 00.424 0L18.114 9" stroke="#fff" stroke-width="2" stroke-linecap="round"/></symbol>
<symbol id="i-checkmark-pricing" viewBox="0 0 20 20" fill="none" xmlns="http://www.w3.org/2000/svg"><path d="M16.667 5L7.5 14.167 3.333 10" stroke="currentColor" stroke-width="1.5" stroke-linecap="round" stroke-linejoin="round"/></symbol>
<symbol id="i-checkmark-small" viewBox="0 0 16 16" fill="none" xmlns="http://www.w3.org/2000/svg"><path d="M13.333 4L6 11.333 2.667 8" stroke="currentColor" stroke-width="2" stroke-linecap="round" stroke-linejoin="round"/></symbol>
<symbol id="i-checkmark" viewBox="0 0 24 24" fill="none" xmlns="http://www.w3.org/2000/svg"><path d="M22 11.078v.92a10 10 0 11-5.93-9.14" stroke="currentcolor" stroke-width="2" stroke-linecap="round" stroke-linejoin="round"/><path d="M22 4.002l-10 10.01-3-3" stroke="currentcolor" stroke-width="2" stroke-linecap="round" stroke-linejoin="round"/></symbol>
<symbol id="i-chevron-down-thick" viewBox="0 0 24 24" fill="none" xmlns="http://www.w3.org/2000/svg"><path d="M6 9l6 6 6-6" stroke="currentColor" stroke-width="1.5" stroke-linecap="round" stroke-linejoin="round"/></symbol>
<symbol id="i-chevron-down" viewBox="0 0 10 6" fill="none" xmlns="http://www.w3.org/2000/svg"><path d="M1 1l4 4 4-4" stroke="#000" stroke-width="1.5" stroke-linecap="round" stroke-linejoin="round"/></symbol>
<symbol id="i-chevron-left-thin" viewBox="0 0 8 14" fill="none" xmlns="http://www.w3.org/2000/svg"><path d="M7 13L1 7l6-6" stroke="currentColor" stroke-width="1.5" stroke-linecap="round" stroke-linejoin="round"/></symbol>
<symbol id="i-chevron-left" viewBox="0 0 8 14" fill="none" xmlns="http://www.w3.org/2000/svg"><path d="M7 1L1 7l6 6" stroke="currentColor" stroke-width="2" stroke-linecap="round" stroke-linejoin="round"/></symbol>
<symbol id="i-chevron-right-small" viewBox="0 0 6 10" fill="none" xmlns="http://www.w3.org/2000/svg"><path d="M1 9l4-4-4-4" stroke="currentColor" stroke-width="1.5" stroke-linecap="round" stroke-linejoin="round"/></symbol>
<symbol id="i-chevron-right" viewBox="0 0 20 20" fill="none" xmlns="http://www.w3.org/2000/svg"><path d="M7.5 15l5-5-5-5" stroke="currentColor" stroke-width="1.5" stroke-linecap="round" stroke-linejoin="round"/></symbol>
<symbol id="i-close-icon-large" viewBox="0 0 24 24" fill="none" xmlns="http://www.w3.org/2000/svg"><path d="M18 6L6 18M6 6l12 12" stroke="currentColor" stroke-width="1.5" stroke-linecap="round" stroke-linejoin="round"/></symbol>
<symbol id="i-close-icon-medium" viewBox="0 0 20 20" fill="none" xmlns="http://www.w3.org/2000/svg"><path d="M15 5L5 15M5 5l10 10" stroke="currentColor" stroke-width="1.5" stroke-linecap="round" stroke-linejoin="round"/></symbol>
<symbol id="i-close-icon-small" viewBox="0 0 16 16" fill="none" xmlns="http://www.w3.org/2000/svg"><path d="M12 4l-8 8M4 4l8 8" stroke="currentColor" stroke-width="1.5" stroke-linecap="round" stroke-linejoin="round"/></symbol>
<symbol id="i-cloud-in-circle" viewBox="0 0 56 56" fill="none" xmlns="http://www.w3.org/2000/svg"><path d="M22.5 34a4.5 4.5 0 111.21-8.835 6.002 6.002 0 0111.21 1.86 3.5 3.5 0 01-.42 6.975h-12z" stroke="currentColor" stroke-linecap="round" stroke-linejoin="round"/></symbol>
<symbol id="i-copy" viewBox="0 0 16 16" fill="none" xmlns="http://www.w3.org/2000/svg"><path d="M13.333 6h-6C6.597 6 6 6.597 6 7.333v6c0 .737.597 1.334 1.333 1.334h6c.737 0 1.334-.597 1.334-1.334v-6c0-.736-.597-1.333-1.334-1.333z" stroke="currentColor" stroke-width="1.5" stroke-linecap="round" stroke-linejoin="round"/><path d="M3.333 10h-.667a1.333 1.333 0 01-1.333-1.333v-6a1.333 1.333 0 011.333-1.334h6A1.333 1.333 0 0110 2.667v.666" stroke="currentColor" stroke-width="1.5" stroke-linecap="round" stroke-linejoin="round"/></symbol>
<symbol id="i-credit-card" viewBox="0 0 24 24" fill="none" xmlns="http://www.w3.org/2000/svg"><path d="M21 4H3a2 2 0 00-2 2v12a2 2 0 002 2h18a2 2 0 002-2V6a2 2 0 00-2-2zM1 10h22" stroke="currentcolor" stroke-width="1.5" stroke-linecap="round" stroke-linejoin="round"/></symbol>
<symbol id="i-cursor" viewBox="0 0 24 24" fill="none" xmlns="http://www.w3.org/2000/svg"><path d="M8 19V3l12 12h-7l-5 5v-1z" stroke="currentColor" stroke-linecap="round" stroke-linejoin="round"/></symbol>
<symbol id="i-desktop-painting" viewBox="0 0 24 24" fill="none" xmlns="http://www.w3.org/2000/svg"><path fill-rule="evenodd" clip-rule="evenodd" d="M15.5 21.999l.5 2H8l.5-2h7zM16.078 3.992H1c-.553 0-1.001.455-1.001 1v15.006a1 1 0 001 1h22c.552 0 1-.454 1-1V4.992a.999.999 0 00-.42-.815l-.917.815H23v14.006H1V4.992h14.188l.89-1z" fill="currentColor"/><path fill-rule="evenodd" clip-rule="evenodd" d="M17 23.5c0-.277-.227-.5-.51-.5H7.51a.51.51 0 00-.51.5c0 .276.228.5.51.5h8.98a.51.51 0 00.51-.5zM6.05 15.716c1.777 1.426 4.492.274 5.273-.508a2.001 2.001 0 00-2.828-2.83c-.781.782-.847 2.73-2.444 3.338zM12.568 12.632l10.482-9.32c.83-.74.864-1.966.083-2.747a1.86 1.86 0 00-2.745.083L11.07 11.134l1.498 1.498z" fill="currentColor"/></symbol>
<symbol id="i-dollar-sign" viewBox="0 0 32 32" fill="none" xmlns="http://www.w3.org/2000/svg"><path d="M16 1.333v29.334M22.667 6.667h-10a4.667 4.667 0 100 9.333h6.666a4.667 4.667 0 110 9.333H8" stroke="currentColor" stroke-width="1.5" stroke-linecap="round" stroke-linejoin="round"/></symbol>
<symbol id="i-download" viewBox="0 0 18 20" fill="none" xmlns="http://www.w3.org/2000/svg"><path d="M9 1v13M4 10l5 5 5-5M17 19H1" stroke="#fff" stroke-width="2" stroke-linecap="round" stroke-linejoin="round"/></symbol>
<symbol id="i-ebook" viewBox="0 0 56 56" fill="none" xmlns="http://www.w3.org/2000/svg"><path fill-rule="evenodd" clip-rule="evenodd" d="M14.555 12.002a16.807 16.807 0 00-4.572.598c-.217.058-.412.19-.548.369a1.03 1.03 0 00-.209.626l.022 3.191-1.815-.79a1.028 1.028 0 00-.97.082 1.028 1.028 0 00-.462.856l-.017 26.098a1.027 1.027 0 001.024 1.025h41.984a1.027 1.027 0 001.024-1.025l-.02-26.098a1.029 1.029 0 00-.462-.856 1.033 1.033 0 00-.97-.083l-1.812.788.022-3.19a1.036 1.036 0 00-.209-.626 1.031 1.031 0 00-.548-.369c-7.207-1.948-12.563 1.311-18.02 3.346-4.237-1.58-8.414-3.898-13.441-3.943v.001zm-.252 2.047c4.494-.032 8.293 2.042 12.674 3.701v23.453c-3.562-1.965-7.996-3.761-15.532-2.77L11.28 14.39a14.579 14.579 0 013.023-.342zm27.392 0c.971.007 1.976.113 3.025.342l-.17 24.041c-7.528-.99-11.964.805-15.526 2.769V17.748c4.378-1.658 8.176-3.73 12.671-3.698zm6.255 4.447l.017 23.514H31.881c3.156-1.498 7-2.448 13.52-1.384a1.034 1.034 0 00.825-.227 1.03 1.03 0 00.364-.776l.145-20.599 1.215-.528zm-39.903 0l1.216.53.142 20.597a1.03 1.03 0 00.364.775 1.022 1.022 0 00.825.228c6.523-1.064 10.366-.114 13.521 1.384H8.032l.015-23.513z" fill="currentColor"/></symbol>
<symbol id="i-eye-closed" viewBox="0 0 24 24" fill="none" xmlns="http://www.w3.org/2000/svg"><path d="M1.5 7.5s1.046 1.643 3 3.21m18-3.21s-1.046 1.643-3 3.21M15 13.084a10.993 10.993 0 01-6.18-.053m6.18.053c1.81-.512 3.32-1.43 4.5-2.374M15 13.084l1.5 3.416m-7.68-3.469c-1.731-.52-3.18-1.408-4.32-2.321m4.32 2.321L7.5 16.5m12-5.79l3 2.79m-18-2.79l-3 2.79" stroke="currentColor" stroke-width="2" stroke-linecap="round" stroke-linejoin="round"/></symbol>
<symbol id="i-eye-opened" viewBox="0 0 24 24" fill="none" xmlns="http://www.w3.org/2000/svg"><path d="M1.5 12S5.318 4.5 12 4.5 22.5 12 22.5 12s-3.818 7.5-10.5 7.5S1.5 12 1.5 12z" stroke="currentColor" stroke-width="2" stroke-linecap="round" stroke-linejoin="round"/><path d="M12 15a3 3 0 100-6 3 3 0 000 6z" stroke="currentColor" stroke-width="2" stroke-linecap="round" stroke-linejoin="round"/></symbol>
<symbol id="i-facebook" viewBox="0 0 8 16" fill="none" xmlns="http://www.w3.org/2000/svg"><path d="M5 5.5v-2a1 1 0 011-1h1V0H5a3 3 0 00-3 3v2.5H0V8h2v8h3V8h2l1-2.5H5z" fill="#000"/></symbol>
<symbol id="i-gift" viewBox="0 0 14 15" fill="none" xmlns="http://www.w3.org/2000/svg" xmlns:xlink="http://www.w3.org/1999/xlink"><path d="M0 14.98h14v-14H0v14z" fill="url(#pattern0)"/></symbol>
<symbol id="i-globe--big" viewBox="0 0 24 24" fill="none" xmlns="http://www.w3.org/2000/svg"><g clip-path="url(#clip0_78_21608)"><path d="M12 0a12 12 0 1012 12A12.013 12.013 0 0012 0zm8.647 7h-3.221a19.674 19.674 0 00-2.821-4.644A10.031 10.031 0 0120.647 7zM16.5 12a10.21 10.21 0 01-.476 3H7.976a10.211 10.211 0 01-.476-3 10.21 10.21 0 01.476-3h8.048c.307.97.468 1.982.476 3zm-7.722 5h6.444A19.615 19.615 0 0112 21.588 19.572 19.572 0 018.778 17zm0-10A19.615 19.615 0 0112 2.412 19.57 19.57 0 0115.222 7H8.778zM9.4 2.356A19.676 19.676 0 006.574 7H3.353A10.03 10.03 0 019.4 2.356zM2.461 9H5.9c-.26.98-.394 1.987-.4 3 .006 1.013.14 2.02.4 3H2.461a9.992 9.992 0 010-6zm.892 8h3.221A19.676 19.676 0 009.4 21.644 10.031 10.031 0 013.353 17zm11.252 4.644c1.15-1.41 2.1-2.973 2.821-4.644h3.221a10.031 10.031 0 01-6.042 4.644zM21.539 15H18.1c.26-.98.394-1.987.4-3a12.02 12.02 0 00-.4-3h3.437a9.991 9.991 0 010 6h.002z" fill="currentColor"/></g></symbol>
<symbol id="i-globe-checkmark" viewBox="0 0 75 66" fill="none" xmlns="http://www.w3.org/2000/svg"><path d="M33.396 64.524c17.891 0 32.395-14.22 32.395-31.762S51.287 1 33.396 1C15.504 1 1 15.22 1 32.762c0 17.541 14.504 31.762 32.396 31.762zM1 32.762h64.791" stroke="currentColor" stroke-width="1.5" stroke-linecap="round" stroke-linejoin="round"/><path d="M33.396 1c8.103 8.697 12.708 19.985 12.958 31.762-.25 11.777-4.855 23.064-12.958 31.762-8.103-8.698-12.708-19.985-12.959-31.762C20.688 20.985 25.294 9.697 33.397 1v0z" stroke="currentColor" stroke-width="1.5" stroke-linecap="round" stroke-linejoin="round"/><path d="M64.5 65S74 60.4 74 53.5v-8.05L64.5 42 55 45.45v8.05c0 6.9 9.5 11.5 9.5 11.5z" fill="#fff" stroke="currentColor" stroke-width="1.5" stroke-linecap="round" stroke-linejoin="round"/><path d="M69 50l-6.188 6L60 53.273" stroke="currentColor" stroke-width="1.5" stroke-linecap="round" stroke-linejoin="round"/></symbol>
<symbol id="i-globe-circle-black" viewBox="0 0 16 16" fill="none" xmlns="http://www.w3.org/2000/svg"><path d="M8 14.667A6.667 6.667 0 108 1.334a6.667 6.667 0 000 13.333zM1.333 8h13.334" stroke="currentcolor" stroke-width="1.5" stroke-linecap="round" stroke-linejoin="round"/><path d="M8 1.333A10.2 10.2 0 0110.667 8 10.2 10.2 0 018 14.667 10.2 10.2 0 015.333 8 10.2 10.2 0 018 1.333v0z" stroke="currentcolor" stroke-width="1.5" stroke-linecap="round" stroke-linejoin="round"/></symbol>
<symbol id="i-globe-circle" viewBox="0 0 16 16" fill="none" xmlns="http://www.w3.org/2000/svg"><path d="M8 14.667A6.667 6.667 0 108 1.333a6.667 6.667 0 000 13.334zM1.333 8h13.334" stroke="currentColor" stroke-width="1.5" stroke-linecap="round" stroke-linejoin="round"/><path d="M8 1.333A10.2 10.2 0 0110.667 8 10.2 10.2 0 018 14.667 10.2 10.2 0 015.333 8 10.2 10.2 0 018 1.333v0z" stroke="currentColor" stroke-width="1.5" stroke-linecap="round" stroke-linejoin="round"/></symbol>
<symbol id="i-go-up-arrow" viewBox="0 0 16 17" fill="none" xmlns="http://www.w3.org/2000/svg"><path d="M8 1v15M14.666 7.667L8 1 1.333 7.667" stroke="currentColor" stroke-width="1.5" stroke-linecap="round" stroke-linejoin="round"/></symbol>
<symbol id="i-grid" viewBox="0 0 32 32" fill="none" xmlns="http://www.w3.org/2000/svg"><path d="M13.333 4H4v9.333h9.333V4zM28 4h-9.334v9.333h9.333V4zM28 18.667h-9.334V28h9.333v-9.333zM13.333 18.667H4V28h9.333v-9.333z" stroke="currentColor" stroke-width="1.5" stroke-linecap="round" stroke-linejoin="round"/></symbol>
<symbol id="i-grip" viewBox="0 0 16 16" fill="none" xmlns="http://www.w3.org/2000/svg"><path d="M12.667 7.333H3.333C2.597 7.333 2 7.93 2 8.667v4.666c0 .737.597 1.334 1.333 1.334h9.334c.736 0 1.333-.597 1.333-1.334V8.667c0-.737-.597-1.334-1.333-1.334zM4.667 7.333V4.667a3.333 3.333 0 016.666 0v2.666" stroke="currentColor" stroke-width="1.5" stroke-linecap="round" stroke-linejoin="round"/></symbol>
<symbol id="i-hostinger-logo" viewBox="0 0 147 30" xmlns="http://www.w3.org/2000/svg"><g fill="currentcolor"><path clip-rule="evenodd" d="M62.065 17.655c.31-.795.465-1.717.465-2.766s-.158-1.971-.474-2.766c-.316-.796-.75-1.465-1.299-2.007a5.347 5.347 0 00-1.93-1.22 6.759 6.759 0 00-2.353-.406 6.58 6.58 0 00-2.309.407 5.443 5.443 0 00-1.931 1.22c-.556.541-.998 1.21-1.326 2.006-.328.795-.492 1.717-.492 2.766s.159 1.971.475 2.766c.316.796.748 1.461 1.299 1.997.55.537 1.194.94 1.931 1.211a6.755 6.755 0 002.353.407c.854 0 1.653-.135 2.396-.407a5.215 5.215 0 001.922-1.21c.538-.537.963-1.202 1.273-1.998zm-8.603-1.14a5.604 5.604 0 01-.219-1.626c0-.59.073-1.128.22-1.618.146-.489.357-.907.632-1.254a2.881 2.881 0 011.01-.814c.397-.194.853-.291 1.369-.291.503 0 .956.094 1.36.283.404.188.743.456 1.018.804.275.348.486.766.633 1.255.146.489.219 1.034.219 1.635 0 .6-.073 1.143-.22 1.626a3.724 3.724 0 01-.632 1.246 2.775 2.775 0 01-1.018.804 3.174 3.174 0 01-1.36.284c-.516 0-.972-.095-1.37-.284a2.788 2.788 0 01-1.01-.804 3.72 3.72 0 01-.632-1.246z" fill-rule="evenodd"/><path d="M69.417 18.92c.386 0 .705-.033.956-.098.252-.065.454-.153.606-.266a.886.886 0 00.316-.397c.059-.153.088-.324.088-.513 0-.4-.187-.733-.562-.998-.374-.265-1.018-.551-1.93-.858-.399-.14-.797-.303-1.195-.486a4.384 4.384 0 01-1.07-.69 3.293 3.293 0 01-.773-1.007c-.199-.395-.298-.875-.298-1.44s.105-1.076.316-1.53c.21-.453.509-.839.895-1.157a4.088 4.088 0 011.404-.734c.55-.17 1.17-.257 1.861-.257.82 0 1.528.09 2.125.266.596.177 1.088.371 1.474.584l-.79 2.174a7.504 7.504 0 00-1.132-.469c-.416-.135-.916-.203-1.501-.203-.656 0-1.127.092-1.413.274-.287.183-.43.463-.43.84 0 .224.052.412.157.565.106.153.255.292.448.416.193.123.416.235.667.335.252.1.53.203.834.31.632.236 1.182.468 1.65.698.468.23.858.498 1.168.804.31.307.541.666.694 1.079.151.412.228.913.228 1.502 0 1.143-.399 2.03-1.194 2.66-.796.63-1.996.946-3.6.946a9.454 9.454 0 01-2.607-.336 6.445 6.445 0 01-1.466-.601l.773-2.192c.363.201.81.38 1.344.54.532.159 1.185.238 1.957.238zM86.275 8.773v2.351h-3.67v9.899h-2.738v-9.899h-3.67V8.773zM89.317 21.023h2.739V8.773h-2.74zM104.315 21.023a61.74 61.74 0 00-2.545-4.154 42.257 42.257 0 00-2.914-3.872v8.026h-2.704V8.773h2.23c.385.389.813.866 1.281 1.432.468.565.945 1.17 1.431 1.812.485.642.968 1.308 1.448 1.997.48.69.93 1.352 1.352 1.988v-7.23h2.721v12.25zM116.644 10.894c-1.275 0-2.197.357-2.765 1.07-.568.713-.851 1.687-.851 2.925 0 .6.07 1.146.21 1.635.141.489.351.91.632 1.264.281.353.632.628 1.054.822.421.194.912.291 1.474.291.304 0 .565-.006.782-.017.216-.012.406-.035.57-.07v-4.26h2.739v6.062c-.328.13-.855.268-1.58.415-.726.147-1.621.222-2.686.222-.913 0-1.741-.142-2.484-.425a5.195 5.195 0 01-1.906-1.237c-.526-.542-.933-1.208-1.219-1.998-.288-.789-.43-1.69-.43-2.704 0-1.025.158-1.933.474-2.722.316-.79.748-1.459 1.299-2.007a5.464 5.464 0 011.94-1.246 6.625 6.625 0 012.378-.424 9.585 9.585 0 012.748.38 5.46 5.46 0 011.29.557l-.79 2.21a7.16 7.16 0 00-1.29-.522 5.454 5.454 0 00-1.589-.22zM124.321 21.023V8.773h8.216v2.316h-5.477v2.403h4.863v2.263h-4.863v2.952h5.881v2.316z"/><path clip-rule="evenodd" d="M144.006 9.612c-.972-.654-2.37-.98-4.196-.98-.503 0-1.074.023-1.711.07-.638.047-1.256.13-1.852.247v12.074h2.738V16.55h1.352c.235.283.47.598.705.946a31.545 31.545 0 011.419 2.307c.228.413.454.819.678 1.22h3.061c-.21-.448-.438-.904-.684-1.37a24.15 24.15 0 00-.764-1.343c-.263-.43-.53-.843-.799-1.238a16.868 16.868 0 00-.772-1.052c.737-.306 1.302-.728 1.694-1.264.392-.536.588-1.234.588-2.094 0-1.38-.486-2.396-1.457-3.05zM139.433 11c.158-.012.336-.018.535-.018.878 0 1.542.127 1.993.38.451.254.676.68.676 1.282 0 .625-.222 1.067-.667 1.326-.445.26-1.183.388-2.212.388h-.773v-3.323l.448-.035z" fill-rule="evenodd"/><path d="M44.002 8.872h2.756V21.08h-2.756V15.9h-4.627v5.179H36.62V8.872h2.755v4.668h4.627z"/><path clip-rule="evenodd" d="M17.817.329v8.73l7.053 4.124v-9.26zM0 .329v13.699h22.937l-6.979-3.836-9.09-.004V4.016zm17.817 25.472v-6.118l-9.16-.007c.008.04-7.095-3.897-7.095-3.897l23.308.11v13.699zM0 16.85V25.8l6.867 3.595v-8.52z" fill-rule="evenodd"/></g></symbol>
<symbol id="i-icon-link" viewBox="0 0 24 24" fill="none" xmlns="http://www.w3.org/2000/svg"><path d="M5 12h14M12 5l7 7-7 7" stroke="currentColor" stroke-width="1.5" stroke-linecap="round" stroke-linejoin="round"/></symbol>
<symbol id="i-info-circle" viewBox="0 0 24 24" fill="none" xmlns="http://www.w3.org/2000/svg"><path d="M12 22c5.523 0 10-4.477 10-10S17.523 2 12 2 2 6.477 2 12s4.477 10 10 10zM12.01 16v-4M12.01 8H12" stroke="currentcolor" stroke-width="2" stroke-linecap="round" stroke-linejoin="round"/></symbol>
<symbol id="i-instagram" viewBox="0 0 16 16" fill="none" xmlns="http://www.w3.org/2000/svg"><path d="M11 0H5a5 5 0 00-5 5v6a5 5 0 005 5h6a5 5 0 005-5V5a5 5 0 00-5-5zm3.5 11c0 1.93-1.57 3.5-3.5 3.5H5c-1.93 0-3.5-1.57-3.5-3.5V5c0-1.93 1.57-3.5 3.5-3.5h6c1.93 0 3.5 1.57 3.5 3.5v6z" fill="#000"/><path d="M8 4a4 4 0 100 8 4 4 0 000-8zm0 6.5A2.503 2.503 0 015.5 8c0-1.379 1.122-2.5 2.5-2.5s2.5 1.121 2.5 2.5c0 1.378-1.122 2.5-2.5 2.5zM12.3 4.233a.533.533 0 100-1.066.533.533 0 000 1.066z" fill="#000"/></symbol>
<symbol id="i-layers-plain" viewBox="0 0 24 24" fill="none" xmlns="http://www.w3.org/2000/svg"><path d="M12 2L2 7l10 5 10-5-10-5zM2 17l10 5 10-5M2 12l10 5 10-5" stroke="currentColor" stroke-width="1.5" stroke-linecap="round" stroke-linejoin="round"/></symbol>
<symbol id="i-linkedin" viewBox="0 0 16 16" fill="none" xmlns="http://www.w3.org/2000/svg"><path d="M3.578 5H0v11h3.578V5zM13.324 5.129c-.038-.012-.074-.025-.114-.036a2.32 2.32 0 00-.145-.028A3.207 3.207 0 0012.423 5c-2.086 0-3.409 1.517-3.845 2.103V5H5v11h3.578v-6s2.704-3.766 3.845-1v7H16V8.577a3.568 3.568 0 00-2.676-3.448zM1.75 3.5a1.75 1.75 0 100-3.5 1.75 1.75 0 000 3.5z" fill="currentColor"/></symbol>
<symbol id="i-lock" viewBox="0 0 16 16" fill="none" xmlns="http://www.w3.org/2000/svg"><path d="M12.667 7H3.333C2.597 7 2 7.651 2 8.455v5.09C2 14.35 2.597 15 3.333 15h9.334c.736 0 1.333-.651 1.333-1.454V8.454C14 7.65 13.403 7 12.667 7z" fill="currentColor" stroke="currentColor" stroke-width="2" stroke-linecap="round" stroke-linejoin="round"/><path d="M4 7V4.333c0-.884.421-1.732 1.172-2.357C5.922 1.351 6.939 1 8 1c1.06 0 2.078.351 2.828.976S12 3.45 12 4.333V7" stroke="currentColor" stroke-width="2" stroke-linecap="round" stroke-linejoin="round"/></symbol>
<symbol id="i-minus-thin" viewBox="0 0 10 2" fill="none" xmlns="http://www.w3.org/2000/svg"><path d="M9 1H1" stroke="#9DA3A9" stroke-linecap="round" stroke-linejoin="round"/></symbol>
<symbol id="i-mobile-dot" viewBox="0 0 24 24" fill="none" xmlns="http://www.w3.org/2000/svg"><path d="M18 2H6a2 2 0 00-2 2v16a2 2 0 002 2h12a2 2 0 002-2V4a2 2 0 00-2-2zM12 18h.01" stroke="currentcolor" stroke-width="1.5" stroke-linecap="round" stroke-linejoin="round"/></symbol>
<symbol id="i-pen-in-circle" viewBox="0 0 56 56" fill="none" xmlns="http://www.w3.org/2000/svg"><path d="M30 33.584A5.001 5.001 0 0033 29c0-4-5-10-5-10s-5 6-5 10a5.001 5.001 0 003 4.584V37h4v-3.416zM28 19v8" stroke="currentColor" stroke-linecap="round" stroke-linejoin="round"/><path d="M28 29a1 1 0 100-2 1 1 0 000 2z" stroke="currentColor" stroke-linecap="round" stroke-linejoin="round"/></symbol>
<symbol id="i-pencil-in-circle" viewBox="0 0 56 56" fill="none" xmlns="http://www.w3.org/2000/svg"><path d="M28 36h9M32.5 19.5a2.121 2.121 0 013 3L23 35l-4 1 1-4 12.5-12.5z" stroke="currentColor" stroke-linecap="round" stroke-linejoin="round"/></symbol>
<symbol id="i-pinterest" viewBox="0 0 14 16" fill="none" xmlns="http://www.w3.org/2000/svg"><path d="M7.218 0C2.832 0 .5 2.81.5 5.874c0 1.421.794 3.193 2.065 3.755.193.087.298.05.341-.129.038-.136.205-.79.286-1.1a.283.283 0 00-.068-.278c-.422-.488-.757-1.377-.757-2.21 0-2.138 1.7-4.213 4.59-4.213 2.5 0 4.25 1.624 4.25 3.947 0 2.625-1.39 4.442-3.194 4.442-1 0-1.744-.785-1.507-1.755.285-1.155.844-2.397.844-3.23 0-.747-.422-1.365-1.285-1.365-1.017 0-1.842 1.007-1.842 2.36 0 .858.304 1.438.304 1.438L3.334 12.36c-.316 1.285.043 3.366.074 3.545.02.099.13.13.192.049.1-.13 1.315-1.865 1.656-3.12l.633-2.31c.335.606 1.303 1.113 2.333 1.113 3.064 0 5.278-2.694 5.278-6.036C13.489 2.397 10.747 0 7.218 0z" fill="#000"/></symbol>
<symbol id="i-question-circle--grey" viewBox="0 0 14 14" fill="none" xmlns="http://www.w3.org/2000/svg"><path fill-rule="evenodd" clip-rule="evenodd" d="M13.215 6.543c0 3.613-2.959 6.542-6.608 6.542C2.958 13.085 0 10.156 0 6.543 0 2.929 2.958 0 6.607 0c3.65 0 6.608 2.93 6.608 6.543zM6.07 7.09a3.568 3.568 0 00-.078.772H7.12a2.11 2.11 0 01.102-.67c.069-.188.186-.36.352-.517a9.11 9.11 0 00.645-.65c.166-.188.302-.397.41-.624.11-.232.166-.482.166-.752 0-.397-.083-.738-.25-1.02a1.559 1.559 0 00-.717-.645c-.313-.15-.687-.225-1.123-.225-.407 0-.772.072-1.094.215a1.731 1.731 0 00-.757.64c-.185.283-.281.626-.288 1.03h1.216c.003-.29.094-.508.273-.655a.993.993 0 01.65-.22c.283 0 .498.08.644.24.15.16.225.389.225.688 0 .173-.034.33-.103.47-.065.136-.146.26-.244.37a9.307 9.307 0 01-.444.445c-.205.198-.363.38-.474.547-.11.166-.19.353-.239.561zm1.02 1.816c-.123-.123-.29-.185-.502-.185-.212 0-.38.062-.503.185a.635.635 0 00-.186.47c0 .188.062.344.186.468.123.12.291.18.503.18.211 0 .379-.06.503-.18a.635.635 0 00.185-.469.635.635 0 00-.185-.469z" fill="currentColor"/></symbol>
<symbol id="i-question-circle" viewBox="0 0 16 16" fill="none" xmlns="http://www.w3.org/2000/svg"><path d="M8 14.667A6.667 6.667 0 108 1.333a6.667 6.667 0 000 13.334z" stroke="currentColor" stroke-width="1.5" stroke-linecap="round" stroke-linejoin="round"/><path d="M6.06 6a2 2 0 013.887.667c0 1.333-2 2-2 2M8 11.333h.007" stroke="currentColor" stroke-width="1.5" stroke-linecap="round" stroke-linejoin="round"/></symbol>
<symbol id="i-question-mark-in-circle--white" viewBox="0 0 16 16" fill="none" xmlns="http://www.w3.org/2000/svg"><path d="M8 16A8 8 0 108 0a8 8 0 000 16z" fill="currentColor"/><path d="M5.83 5.858a2.146 2.146 0 014.17.715c0 1.43-2.146 2.146-2.146 2.146M7.912 11.58h.007" stroke="#fff" stroke-width="1.5" stroke-linecap="round" stroke-linejoin="round"/></symbol>
<symbol id="i-question-mark-in-circle" viewBox="0 0 16 16" fill="none" xmlns="http://www.w3.org/2000/svg"><path d="M8 16A8 8 0 108 0a8 8 0 000 16z" fill="#EBEFF2"/><path d="M5.83 5.858a2.146 2.146 0 014.17.715c0 1.43-2.146 2.146-2.146 2.146M7.912 11.58h.007" stroke="#72777C" stroke-width="1.5" stroke-linecap="round" stroke-linejoin="round"/></symbol>
<symbol id="i-quotes" viewBox="0 0 94 95" fill="none" xmlns="http://www.w3.org/2000/svg"><g filter="url(#filter0_d)"><circle cx="47" cy="42" r="30" fill="#fff"/></g><path d="M49.685 53v-7.765c0-3.276.351-6.127 1.055-8.551A21.551 21.551 0 0154 30h7c-1.598 2.097-2.845 4.26-3.74 6.487-.895 2.163-1.342 4.194-1.342 6.094h4.986V53h-11.22zM33 53v-7.765c0-3.21.32-6.028.959-8.453.703-2.49 1.79-4.75 3.26-6.782h7.096c-1.598 2.097-2.845 4.26-3.74 6.487-.895 2.163-1.342 4.194-1.342 6.094h4.986V53H33z" fill="currentColor"/></symbol>
<symbol id="i-review-button" viewBox="0 0 25 8" fill="none" xmlns="http://www.w3.org/2000/svg"><path d="M24.354 4.354a.5.5 0 000-.708L21.172.464a.5.5 0 10-.707.708L23.293 4l-2.828 2.828a.5.5 0 10.707.708l3.182-3.182zM0 4.5h24v-1H0v1z" fill="currentColor"/></symbol>
<symbol id="i-rocket" viewBox="0 0 24 24" fill="none" xmlns="http://www.w3.org/2000/svg"><mask id="a" maskUnits="userSpaceOnUse" x="13.014" y="3.951" width="7" height="7" fill="#000"><path fill="#fff" d="M13.014 3.951h7v7h-7z"/><path d="M16.524 4.952a2.428 2.428 0 00-1.745.667 2.425 2.425 0 00-.764 1.705 2.428 2.428 0 00.666 1.745 2.428 2.428 0 001.776.765 2.42 2.42 0 001.674-.668 2.425 2.425 0 00.765-1.705 2.43 2.43 0 00-.666-1.746 2.43 2.43 0 00-1.706-.763zm1.57 2.486a1.633 1.633 0 01-.513 1.145h-.001c-.317.3-.737.467-1.171.447a1.63 1.63 0 01-1.144-.512c-.301-.318-.46-.734-.448-1.172a1.63 1.63 0 01.513-1.144 1.622 1.622 0 011.171-.448c.437.013.844.195 1.144.513.301.318.46.734.448 1.171z"/></mask><path d="M16.524 4.952a2.428 2.428 0 00-1.745.667 2.425 2.425 0 00-.764 1.705 2.428 2.428 0 00.666 1.745 2.428 2.428 0 001.776.765 2.42 2.42 0 001.674-.668 2.425 2.425 0 00.765-1.705 2.43 2.43 0 00-.666-1.746 2.43 2.43 0 00-1.706-.763zm1.57 2.486a1.633 1.633 0 01-.513 1.145h-.001c-.317.3-.737.467-1.171.447a1.63 1.63 0 01-1.144-.512c-.301-.318-.46-.734-.448-1.172a1.63 1.63 0 01.513-1.144 1.622 1.622 0 011.171-.448c.437.013.844.195 1.144.513.301.318.46.734.448 1.171z" fill="currentColor"/><path d="M16.524 4.952a2.428 2.428 0 00-1.745.667 2.425 2.425 0 00-.764 1.705 2.428 2.428 0 00.666 1.745 2.428 2.428 0 001.776.765 2.42 2.42 0 001.674-.668 2.425 2.425 0 00.765-1.705 2.43 2.43 0 00-.666-1.746 2.43 2.43 0 00-1.706-.763h0zm1.57 2.486a1.633 1.633 0 01-.513 1.145h-.001c-.317.3-.737.467-1.171.447a1.63 1.63 0 01-1.144-.512c-.301-.318-.46-.734-.448-1.172a1.63 1.63 0 01.513-1.144 1.622 1.622 0 011.171-.448c.437.013.844.195 1.144.513.301.318.46.734.448 1.171h0z" stroke="currentColor" stroke-width=".8" mask="url(#a)"/><mask id="b" maskUnits="userSpaceOnUse" x="-.077" y="-.077" width="24" height="24" fill="#000"><path fill="#fff" d="M-.077-.077h24v24h-24z"/><path d="M22.668.933c-.286-.02-6.953-.322-11.253 4.603-.062.067-1.523 1.653-2.455 2.827-.319.401-.65.772-1.002 1.115a.576.576 0 01-.393.166l-2.237.037a1.378 1.378 0 00-.983.436l-3.018 3.18a1.488 1.488 0 00-.017 2.021 1.379 1.379 0 001.703.273l1.096-.625a.569.569 0 01.713.122l1.769 1.992 1.817 1.928c.19.2.22.506.076.743l-.664 1.095a1.492 1.492 0 00.169 1.773c.278.303.65.458 1.023.458.33 0 .66-.12.929-.362l3.24-2.937c.281-.256.45-.608.476-.99l.162-2.307a.622.622 0 01.197-.41c.334-.33.711-.651 1.118-.958 1.186-.897 2.799-2.316 2.858-2.368 5.006-4.171 5.083-11.074 5.085-11.367V1.36a.437.437 0 00-.41-.426zM17.467 12.09c-.016.015-1.658 1.46-2.818 2.337-.435.328-.84.673-1.214 1.04-.256.25-.412.59-.438.953l-.161 2.309a.605.605 0 01-.198.41l-3.24 2.937a.57.57 0 01-.81-.04.618.618 0 01-.071-.736l.664-1.096a1.49 1.49 0 00-.183-1.789l-1.81-1.918-1.76-1.984a1.386 1.386 0 00-1.036-.473c-.232 0-.466.06-.682.182l-1.095.626a.572.572 0 01-.707-.114.618.618 0 01.007-.84l3.018-3.18a.572.572 0 01.408-.181l2.237-.037c.352-.006.687-.147.96-.413.362-.354.718-.75 1.058-1.18.912-1.149 2.4-2.762 2.422-2.787 1.563-1.79 3.493-2.843 5.277-3.462l3.82 4.175c-.7 1.808-1.828 3.745-3.648 5.261zm3.963-6.156l-3.253-3.556c1.81-.508 3.363-.59 4.059-.598a17.782 17.782 0 01-.806 4.154z"/></mask><path d="M22.668.933c-.286-.02-6.953-.322-11.253 4.603-.062.067-1.523 1.653-2.455 2.827-.319.401-.65.772-1.002 1.115a.576.576 0 01-.393.166l-2.237.037a1.378 1.378 0 00-.983.436l-3.018 3.18a1.488 1.488 0 00-.017 2.021 1.379 1.379 0 001.703.273l1.096-.625a.569.569 0 01.713.122l1.769 1.992 1.817 1.928c.19.2.22.506.076.743l-.664 1.095a1.492 1.492 0 00.169 1.773c.278.303.65.458 1.023.458.33 0 .66-.12.929-.362l3.24-2.937c.281-.256.45-.608.476-.99l.162-2.307a.622.622 0 01.197-.41c.334-.33.711-.651 1.118-.958 1.186-.897 2.799-2.316 2.858-2.368 5.006-4.171 5.083-11.074 5.085-11.367V1.36a.437.437 0 00-.41-.426zM17.467 12.09c-.016.015-1.658 1.46-2.818 2.337-.435.328-.84.673-1.214 1.04-.256.25-.412.59-.438.953l-.161 2.309a.605.605 0 01-.198.41l-3.24 2.937a.57.57 0 01-.81-.04.618.618 0 01-.071-.736l.664-1.096a1.49 1.49 0 00-.183-1.789l-1.81-1.918-1.76-1.984a1.386 1.386 0 00-1.036-.473c-.232 0-.466.06-.682.182l-1.095.626a.572.572 0 01-.707-.114.618.618 0 01.007-.84l3.018-3.18a.572.572 0 01.408-.181l2.237-.037c.352-.006.687-.147.96-.413.362-.354.718-.75 1.058-1.18.912-1.149 2.4-2.762 2.422-2.787 1.563-1.79 3.493-2.843 5.277-3.462l3.82 4.175c-.7 1.808-1.828 3.745-3.648 5.261zm3.963-6.156l-3.253-3.556c1.81-.508 3.363-.59 4.059-.598a17.782 17.782 0 01-.806 4.154z" fill="currentColor"/><path d="M22.668.933c-.286-.02-6.953-.322-11.253 4.603-.062.067-1.523 1.653-2.455 2.827-.319.401-.65.772-1.002 1.115a.576.576 0 01-.393.166l-2.237.037a1.378 1.378 0 00-.983.436l-3.018 3.18a1.488 1.488 0 00-.017 2.021 1.379 1.379 0 001.703.273l1.096-.625a.569.569 0 01.713.122l1.769 1.992 1.817 1.928c.19.2.22.506.076.743l-.664 1.095a1.492 1.492 0 00.169 1.773c.278.303.65.458 1.023.458.33 0 .66-.12.929-.362l3.24-2.937c.281-.256.45-.608.476-.99l.162-2.307a.622.622 0 01.197-.41c.334-.33.711-.651 1.118-.958 1.186-.897 2.799-2.316 2.858-2.368 5.006-4.171 5.083-11.074 5.085-11.367V1.36a.437.437 0 00-.41-.426h0zM17.467 12.09c-.016.015-1.658 1.46-2.818 2.337-.435.328-.84.673-1.214 1.04-.256.25-.412.59-.438.953l-.161 2.309a.605.605 0 01-.198.41l-3.24 2.937a.57.57 0 01-.81-.04.618.618 0 01-.071-.736l.664-1.096a1.49 1.49 0 00-.183-1.789l-1.81-1.918-1.76-1.984a1.386 1.386 0 00-1.036-.473c-.232 0-.466.06-.682.182l-1.095.626a.572.572 0 01-.707-.114.618.618 0 01.007-.84l3.018-3.18a.572.572 0 01.408-.181l2.237-.037c.352-.006.687-.147.96-.413.362-.354.718-.75 1.058-1.18.912-1.149 2.4-2.762 2.422-2.787 1.563-1.79 3.493-2.843 5.277-3.462l3.82 4.175c-.7 1.808-1.828 3.745-3.648 5.261h0zm3.963-6.156l-3.253-3.556c1.81-.508 3.363-.59 4.059-.598a17.782 17.782 0 01-.806 4.154z" stroke="currentColor" stroke-width=".8" mask="url(#b)"/><mask id="c" maskUnits="userSpaceOnUse" x=".224" y="16.608" width="7" height="6" fill="#000"><path fill="#fff" d="M.224 16.608h7v6h-7z"/><path d="M3.065 18.456c-.776.734-1.706 2.871-1.809 3.113a.399.399 0 00.078.433.399.399 0 00.428.102c.247-.09 2.433-.897 3.21-1.631.928-.878 1.218-1.973.675-2.549-.543-.575-1.654-.344-2.582.532zm1.355 1.433c-.369.35-1.265.779-2.008 1.094.357-.725.835-1.595 1.204-1.944.467-.44.95-.63 1.233-.63.099 0 .173.023.215.066.16.17-.016.82-.644 1.414z"/></mask><path d="M3.065 18.456c-.776.734-1.706 2.871-1.809 3.113a.399.399 0 00.078.433.399.399 0 00.428.102c.247-.09 2.433-.897 3.21-1.631.928-.878 1.218-1.973.675-2.549-.543-.575-1.654-.344-2.582.532zm1.355 1.433c-.369.35-1.265.779-2.008 1.094.357-.725.835-1.595 1.204-1.944.467-.44.95-.63 1.233-.63.099 0 .173.023.215.066.16.17-.016.82-.644 1.414z" fill="currentColor"/><path d="M3.065 18.456c-.776.734-1.706 2.871-1.809 3.113a.399.399 0 00.078.433.399.399 0 00.428.102c.247-.09 2.433-.897 3.21-1.631.928-.878 1.218-1.973.675-2.549-.543-.575-1.654-.344-2.582.532v0zm1.355 1.433c-.369.35-1.265.779-2.008 1.094.357-.725.835-1.595 1.204-1.944.467-.44.95-.63 1.233-.63.099 0 .173.023.215.066.16.17-.016.82-.644 1.414h0z" stroke="currentColor" stroke-width=".8" mask="url(#c)"/></symbol>
<symbol id="i-s-shape" viewBox="0 0 40 40" fill="none" xmlns="http://www.w3.org/2000/svg"><path d="M40 0H0v40C20 40 20 0 40 0z" fill="currentColor"/></symbol>
<symbol id="i-search-icon" viewBox="0 0 50 50" fill="none" xmlns="http://www.w3.org/2000/svg"><circle cx="25" cy="25" r="25" fill="currentColor"/><path fill-rule="evenodd" clip-rule="evenodd" d="M24.11 17.896c2.897 0 5.254 2.41 5.254 5.371 0 2.963-2.357 5.372-5.255 5.372-2.897 0-5.254-2.41-5.254-5.372 0-2.962 2.357-5.371 5.254-5.371zm9.632 14.5l-4.191-4.457a7.34 7.34 0 001.668-4.672c0-4.007-3.19-7.267-7.11-7.267C20.19 16 17 19.26 17 23.267c0 4.008 3.19 7.268 7.11 7.268a6.928 6.928 0 004.072-1.315l4.223 4.49a.91.91 0 001.31.026.964.964 0 00.026-1.34z" fill="#fff"/></symbol>
<symbol id="i-seo-phones" viewBox="0 0 103 21" fill="none" xmlns="http://www.w3.org/2000/svg"><rect x="90.957" y=".654" width="10.47" height="17.014" rx="2.617" stroke="currentColor" stroke-width="1.309"/><g opacity=".3"><rect x=".654" y=".654" width="24.212" height="17.014" rx="2.617" stroke="currentColor" stroke-width="1.309"/><rect x="50.387" y=".654" width="15.05" height="17.014" rx="2.617" stroke="currentColor" stroke-width="1.309"/><path d="M8.508 20.287c0-.361.293-.654.654-.654h7.853a.654.654 0 010 1.309H9.162a.654.654 0 01-.654-.655z" fill="currentColor"/></g></symbol>
<symbol id="i-settings-sliders" viewBox="0 0 26 26" fill="none" xmlns="http://www.w3.org/2000/svg"><path d="M8.5 7a3 3 0 100-6 3 3 0 000 6zM1 3.997h4.5M11.5 3.997H25M8.5 25a3 3 0 100-6 3 3 0 000 6zM1 22h4.5M11.5 22H25M17.5 16a3 3 0 100-6 3 3 0 000 6zM1 13h13.5M20.5 13H25" stroke="currentColor" stroke-linecap="round" stroke-linejoin="round"/></symbol>
<symbol id="i-shield-check" viewBox="0 0 20 20" fill="none" xmlns="http://www.w3.org/2000/svg"><g clip-path="url(#clip0_109_14939)" fill="currentColor"><path d="M15.483 1.783l-5.22-1.74a.833.833 0 00-.527 0l-5.22 1.74a4.16 4.16 0 00-2.85 3.953V10c0 6.302 7.667 9.783 7.995 9.928a.832.832 0 00.677 0c.328-.145 7.995-3.626 7.995-9.928V5.736a4.16 4.16 0 00-2.85-3.953zM16.666 10c0 4.546-5.266 7.527-6.667 8.24-1.402-.71-6.666-3.683-6.666-8.24V5.736a2.5 2.5 0 011.71-2.372L9.999 1.71l4.957 1.653a2.5 2.5 0 011.71 2.372V10z"/><path d="M12.75 6.917l-3.49 3.5-1.87-1.95a.833.833 0 10-1.201 1.155l1.921 2a1.56 1.56 0 001.121.5h.028a1.56 1.56 0 001.112-.461l3.56-3.56a.835.835 0 00-.59-1.429.836.836 0 00-.591.245z"/></g></symbol>
<symbol id="i-shield-in-circle" viewBox="0 0 56 56" fill="none" xmlns="http://www.w3.org/2000/svg"><path fill-rule="evenodd" clip-rule="evenodd" d="M18.996 26.038c.245 2.816.973 6.072 2.785 8.337 1.923 2.404 3.563 3.554 4.666 4.106a5.59 5.59 0 001.243.466 2.5 2.5 0 00.281.05l.029.002.029-.003c.052-.006.147-.019.28-.05.267-.06.691-.19 1.244-.465 1.103-.552 2.743-1.702 4.666-4.106 1.812-2.265 2.54-5.521 2.785-8.337a29.619 29.619 0 00.046-4.395L28 17.118l-9.05 4.525a29.619 29.619 0 00.047 4.395zM18 21s-1 9 3 14 7 5 7 5 3 0 7-5 3-14 3-14l-10-5-10 5z" fill="currentColor"/><path fill-rule="evenodd" clip-rule="evenodd" d="M32.387 25.683a.5.5 0 01-.07.704l-5.5 4.5a.5.5 0 01-.701-.067l-2.5-3a.5.5 0 01.768-.64l2.183 2.62 5.116-4.187a.5.5 0 01.704.07z" fill="currentColor"/></symbol>
<symbol id="i-small-pin" viewBox="0 0 24 24" fill="none" xmlns="http://www.w3.org/2000/svg"><path fill-rule="evenodd" clip-rule="evenodd" d="M12 2a8 8 0 00-8 8c0 3.098 2.016 6.104 4.226 8.437A29.419 29.419 0 0012 21.773a29.412 29.412 0 003.774-3.335C17.984 16.103 20 13.097 20 10a8 8 0 00-8-8zm0 21l-.555.832-.003-.002-.007-.005-.023-.015a28.518 28.518 0 01-1.441-1.074 31.428 31.428 0 01-3.197-2.923C4.484 17.396 2 13.902 2 10a10 10 0 0120 0c0 3.902-2.484 7.396-4.774 9.813a31.433 31.433 0 01-4.254 3.726 18.887 18.887 0 01-.384.27l-.023.016-.007.005-.002.001s-.001.001-.556-.831zm0 0l.555.832a1 1 0 01-1.11 0L12 23z" fill="#000"/><path fill-rule="evenodd" clip-rule="evenodd" d="M12 8a2 2 0 100 4 2 2 0 000-4zm-4 2a4 4 0 118 0 4 4 0 01-8 0z" fill="#000"/></symbol>
<symbol id="i-stars" viewBox="0 0 116 20" fill="none" xmlns="http://www.w3.org/2000/svg"><path d="M10 0l2.245 6.91h7.266l-5.878 4.27 2.245 6.91L10 13.82l-5.878 4.27 2.245-6.91L.49 6.91h7.266L10 0zM34 0l2.245 6.91h7.266l-5.878 4.27 2.245 6.91L34 13.82l-5.878 4.27 2.245-6.91-5.878-4.27h7.266L34 0zM58 0l2.245 6.91h7.266l-5.878 4.27 2.245 6.91L58 13.82l-5.878 4.27 2.245-6.91-5.878-4.27h7.266L58 0zM82 0l2.245 6.91h7.266l-5.878 4.27 2.245 6.91L82 13.82l-5.878 4.27 2.245-6.91-5.878-4.27h7.266L82 0zM106 0l2.245 6.91h7.266l-5.878 4.27 2.245 6.91L106 13.82l-5.878 4.27 2.245-6.91-5.878-4.27h7.266L106 0z" fill="#FFC259"/></symbol>
<symbol id="i-stock-arrow-up" viewBox="0 0 24 24" fill="none" xmlns="http://www.w3.org/2000/svg"><path d="M23 6l-9.5 9.5-5-5L1 18" stroke="currentcolor" stroke-width="1.5" stroke-linecap="round" stroke-linejoin="round"/><path d="M17 6h6v6" stroke="currentcolor" stroke-width="1.5" stroke-linecap="round" stroke-linejoin="round"/></symbol>
<symbol id="i-stocks-in-circle" viewBox="0 0 56 56" fill="none" xmlns="http://www.w3.org/2000/svg"><path d="M40 22l-10.364 9.509-5.454-5.005L16 34.011" stroke="currentColor" stroke-width="1.2" stroke-linecap="round" stroke-linejoin="round"/><path d="M33.455 22H40v6.006" stroke="currentColor" stroke-width="1.2" stroke-linecap="round" stroke-linejoin="round"/></symbol>
<symbol id="i-twitter" viewBox="0 0 16 14" fill="none" xmlns="http://www.w3.org/2000/svg"><path d="M16 2.039a6.839 6.839 0 01-1.89.518A3.262 3.262 0 0015.553.744a6.555 6.555 0 01-2.08.794 3.28 3.28 0 00-5.674 2.243c0 .26.022.51.076.748a9.284 9.284 0 01-6.761-3.431 3.285 3.285 0 001.008 4.384A3.24 3.24 0 01.64 5.078v.036a3.295 3.295 0 002.628 3.223 3.274 3.274 0 01-.86.108 2.9 2.9 0 01-.621-.056 3.311 3.311 0 003.065 2.285 6.59 6.59 0 01-4.067 1.399c-.269 0-.527-.012-.785-.045A9.234 9.234 0 005.032 13.5c6.036 0 9.336-5 9.336-9.334 0-.145-.005-.285-.012-.424A6.544 6.544 0 0016 2.039z" fill="#000"/></symbol>
<symbol id="i-upload-clouds" viewBox="0 0 40 28" fill="none" xmlns="http://www.w3.org/2000/svg"><path d="M33.984 26.65A8.333 8.333 0 0030 11h-2.1A13.333 13.333 0 105 23.167" stroke="currentColor" stroke-width="1.5" stroke-linecap="round" stroke-linejoin="round"/></symbol>
<symbol id="i-user" viewBox="0 0 32 32" fill="none" xmlns="http://www.w3.org/2000/svg"><path d="M26.667 28v-2.667A5.333 5.333 0 0021.334 20H10.667a5.333 5.333 0 00-5.333 5.333V28M16 14.667A5.333 5.333 0 1016 4a5.333 5.333 0 000 10.667z" stroke="currentColor" stroke-width="1.5" stroke-linecap="round" stroke-linejoin="round"/></symbol>
<symbol id="i-youtube" viewBox="0 0 16 12" fill="none" xmlns="http://www.w3.org/2000/svg"><path d="M15.32 1.56c-.434-.772-.905-.914-1.864-.968C12.498.527 10.089.5 8.002.5 5.911.5 3.501.527 2.544.591 1.587.646 1.115.787.677 1.56.23 2.331 0 3.659 0 5.997v.008c0 2.328.23 3.666.677 4.429.438.772.909.912 1.866.977.958.056 3.368.089 5.459.089 2.087 0 4.496-.033 5.455-.088.959-.065 1.43-.205 1.864-.977.451-.763.679-2.101.679-4.429v-.005-.003c0-2.339-.228-3.667-.68-4.438zM6 9V3l5 3-5 3z" fill="#000"/></symbol>
<symbol id="i-zero-congrats" xmlns="//www.w3.org/2000/svg" viewBox="0 0 61 62"><text fill="currentColor" fill-rule="evenodd" font-family="AppleColorEmoji, Apple Color Emoji" font-size="61.34" transform="translate(-652 -153)"><tspan x="652" y="201">🎊</tspan></text></symbol>
<symbol id="i-zyro-blog-logo" viewBox="0 0 86 32" xmlns="http://www.w3.org/2000/svg"><path fill-rule="evenodd" clip-rule="evenodd" d="M55.652 13.762c-.527.975-1.309 1.644-2.343 2.009-1.03.363-2.009.317-2.938-.136-.932-.47-1.54-1.21-1.826-2.22-.29-1.02-.176-2.025.34-3.018.524-.976 1.298-1.653 2.324-2.031 1.03-.379 2.01-.345 2.942.104.95.467 1.572 1.217 1.865 2.252.292 1.025.17 2.04-.364 3.04zM54.153 3.235c-2.355-.435-4.532.063-6.53 1.484-1.988 1.414-3.22 3.322-3.704 5.721-.477 2.393-.08 4.587 1.186 6.595 1.261 2 3.034 3.244 5.328 3.732 2.304.484 4.47.058 6.5-1.29 2.04-1.353 3.34-3.243 3.888-5.673.546-2.453.168-4.72-1.136-6.786-1.308-2.074-3.156-3.336-5.532-3.783zM.155 15.018v-4.422l11.986-1.583v3.74l-6.294 8.871 6.785-.75v4.54L0 26.697v-3.649l6.144-8.746-5.989.716zM25.39 6.845v8.433c0 1.04-.339 1.968-1.015 2.782-.666.81-1.471 1.268-2.413 1.371-.94.104-1.74-.173-2.404-.83-.662-.655-.992-1.494-.992-2.52V7.758l-4.233.566v8.253c0 2.262.733 4.127 2.207 5.598 1.482 1.462 3.287 2.09 5.422 1.874 1.57-.158 2.714-.705 3.428-1.643v.583c0 1.04-.339 1.963-1.015 2.766-.666.801-1.471 1.245-2.413 1.335 0 0-2.497.315-4.167-1.479l-2.628 2.267-.847.73s2.652 3.129 6.833 3.14l.002-.004a7.6 7.6 0 00.807-.02c2.134-.183 3.974-1.168 5.514-2.96 1.548-1.785 2.33-3.854 2.34-6.198V6.252l-4.426.593zm16.936-2.184v4.002c-4.453.401-5.074 3.666-5.158 4.738l-.136 9.16-4.125.358V5.904l4.382-.578-.012.768c.194-.168.405-.312.62-.434 1.52-.968 4.43-.999 4.43-.999z"/><path d="M63.063 10.486V4.088h2.193c.723 0 1.274.145 1.652.435.378.29.567.722.567 1.296 0 .293-.08.557-.237.791-.159.235-.39.416-.695.545.346.094.612.271.8.532.19.258.286.568.286.932 0 .6-.194 1.062-.58 1.384-.384.322-.935.483-1.653.483h-2.333zM64.175 7.6v2h1.234c.35 0 .621-.087.818-.26.196-.173.294-.413.294-.72 0-.665-.34-1.005-1.02-1.02h-1.326zm0-.817h1.09c.345 0 .615-.078.808-.233.196-.158.294-.381.294-.668 0-.317-.09-.545-.272-.686-.179-.14-.459-.21-.84-.21h-1.08v1.797zM69.852 9.599h2.905v.887H68.74V4.088h1.112v5.51zM78.435 7.454c0 .627-.109 1.178-.325 1.652a2.47 2.47 0 01-.932 1.09 2.557 2.557 0 01-1.389.378c-.518 0-.981-.126-1.388-.378a2.53 2.53 0 01-.94-1.085c-.22-.469-.332-1.01-.335-1.622v-.36c0-.624.11-1.175.33-1.652.222-.478.534-.843.936-1.095A2.549 2.549 0 0175.78 4c.521 0 .982.126 1.384.378.404.249.716.61.936 1.081.22.469.33 1.015.334 1.64v.355zm-1.112-.334c0-.709-.135-1.252-.404-1.63-.267-.378-.646-.567-1.138-.567-.481 0-.857.189-1.13.567-.27.375-.407.906-.413 1.595v.37c0 .702.136 1.246.409 1.63.275.383.656.575 1.142.575.492 0 .87-.187 1.134-.562.267-.375.4-.923.4-1.644V7.12zM84.447 9.656c-.232.302-.553.53-.963.685-.41.156-.876.233-1.397.233-.537 0-1.011-.121-1.424-.364a2.447 2.447 0 01-.958-1.042c-.223-.454-.338-.983-.347-1.586V7.08c0-.967.231-1.722.694-2.264C80.515 4.272 81.161 4 81.99 4c.712 0 1.277.176 1.696.527.42.352.671.859.756 1.52h-1.09c-.123-.77-.57-1.155-1.34-1.155-.498 0-.877.18-1.138.54-.258.358-.391.884-.4 1.578v.492c0 .692.145 1.23.435 1.613.293.381.699.572 1.217.572.569 0 .973-.13 1.213-.387V8.047h-1.318v-.843h2.425v2.452z"/></symbol>
<symbol id="i-zyro-by-hostinger-logo" viewBox="0 0 73 46" xmlns="http://www.w3.org/2000/svg"><path d="M30.123 37.504h1.13v5.006h-1.13v-2.124h-1.898v2.124h-1.13v-5.006h1.13v1.914h1.898v-1.914z"/><path fill-rule="evenodd" clip-rule="evenodd" d="M37.532 41.106c.127-.326.19-.705.19-1.135 0-.43-.064-.808-.194-1.134a2.36 2.36 0 00-.533-.823 2.192 2.192 0 00-.792-.5 2.773 2.773 0 00-.965-.167 2.7 2.7 0 00-.946.167c-.3.11-.565.277-.792.5-.228.222-.41.496-.544.823a2.961 2.961 0 00-.202 1.134c0 .43.065.809.195 1.135a2.21 2.21 0 001.325 1.316c.302.11.624.166.964.166.35 0 .678-.055.983-.166.305-.112.568-.277.789-.497.22-.22.394-.493.522-.82zm-3.529-.468c-.06-.198-.09-.42-.09-.667 0-.241.03-.462.09-.663.06-.2.147-.372.26-.515a1.184 1.184 0 01.975-.453c.207 0 .393.039.559.116.165.077.304.187.417.33.113.143.2.314.26.514.06.201.09.425.09.671 0 .247-.03.469-.09.667-.06.198-.147.369-.26.511a1.137 1.137 0 01-.417.33 1.3 1.3 0 01-.559.116c-.21 0-.398-.038-.561-.116a1.144 1.144 0 01-.414-.33 1.527 1.527 0 01-.26-.51z"/><path d="M40.547 41.624c.159 0 .29-.013.393-.04a.712.712 0 00.248-.109.364.364 0 00.13-.163.585.585 0 00.036-.21c0-.164-.077-.3-.23-.41-.154-.108-.418-.225-.793-.351a5.892 5.892 0 01-.49-.2 1.8 1.8 0 01-.439-.282 1.35 1.35 0 01-.316-.413 1.298 1.298 0 01-.123-.591c0-.232.044-.441.13-.627.086-.187.209-.345.367-.475.159-.13.35-.23.576-.301.226-.07.48-.105.763-.105.336 0 .627.036.872.108.244.073.446.153.604.24l-.324.892a3.077 3.077 0 00-.464-.193 2.004 2.004 0 00-.616-.083c-.268 0-.462.038-.58.112-.117.075-.176.19-.176.345a.4.4 0 00.065.232.63.63 0 00.184.17c.079.05.17.097.273.138.103.041.218.083.342.127.26.096.485.192.677.286.192.094.352.204.48.33.126.126.221.273.283.442.063.17.094.375.094.616 0 .47-.163.833-.49 1.091-.326.26-.818.389-1.476.389a4.061 4.061 0 01-1.069-.138 2.694 2.694 0 01-.601-.247l.317-.899c.148.083.332.156.55.221.219.066.487.098.803.098zM47.462 37.463v.964h-1.505v4.06h-1.123v-4.06H43.33v-.964h4.133zM48.709 42.487h1.123v-5.024h-1.123v5.024zM54.86 42.487a25.363 25.363 0 00-1.044-1.704c-.375-.56-.773-1.09-1.196-1.587v3.29h-1.109v-5.023h.915c.158.16.333.355.525.587.192.232.388.48.587.743.2.264.397.537.594.82.197.282.382.554.555.815v-2.965h1.116v5.024h-.943zM59.916 38.333c-.523 0-.901.146-1.134.438-.233.293-.35.693-.35 1.2 0 .247.03.47.087.67.058.201.144.374.26.52.115.144.258.257.431.336.173.08.374.12.605.12.125 0 .232-.002.32-.007.09-.005.167-.015.234-.03v-1.746h1.124v2.486c-.135.053-.35.11-.648.17a5.65 5.65 0 01-1.102.091c-.374 0-.714-.058-1.019-.174a2.13 2.13 0 01-.781-.507 2.271 2.271 0 01-.5-.82 3.233 3.233 0 01-.177-1.109c0-.42.065-.792.195-1.116.13-.324.307-.598.532-.823.226-.225.491-.395.796-.511.305-.116.63-.174.976-.174a3.931 3.931 0 011.126.156 2.257 2.257 0 01.53.228l-.324.906a2.94 2.94 0 00-.53-.214c-.199-.06-.416-.09-.651-.09zM63.065 42.487v-5.024h3.37v.95h-2.247v.985h1.995v.928h-1.995v1.211h2.413v.95h-3.536z"/><path fill-rule="evenodd" clip-rule="evenodd" d="M71.14 37.807c-.399-.268-.972-.402-1.721-.402-.207 0-.44.01-.702.029-.262.019-.515.053-.76.101v4.952h1.123v-1.834h.555c.096.116.193.245.29.388a13.443 13.443 0 01.58.946l.279.5h1.256c-.087-.184-.18-.371-.28-.562-.102-.19-.206-.374-.314-.55a12.598 12.598 0 00-.328-.508 6.914 6.914 0 00-.317-.432c.303-.125.534-.298.695-.518.161-.22.241-.507.241-.86 0-.565-.199-.982-.597-1.25zm-1.876.57c.065-.006.138-.008.22-.008.36 0 .632.052.817.156.185.104.277.279.277.526 0 .256-.09.437-.273.543-.183.107-.485.16-.908.16h-.317V38.39l.184-.015zM20.308 34v3.58l2.892 1.692v-3.798L20.308 34zM13 34v5.618h9.407l-2.862-1.573-3.728-.002v-2.53L13 34zm7.308 10.447v-2.51l-3.758-.002c.004.017-2.91-1.598-2.91-1.598l9.56.045V46l-2.892-1.553zM13 40.776v3.671l2.817 1.474v-3.494L13 40.776z"/><path d="M.865 43v-5.332h1.868c.647 0 1.138.124 1.472.373.335.247.502.61.502 1.088 0 .261-.067.492-.201.692a1.168 1.168 0 01-.56.436c.273.068.488.206.644.414.159.207.238.461.238.762 0 .512-.164.9-.49 1.164-.328.264-.794.398-1.4.403H.865zm1.1-2.322v1.44h.94c.26 0 .46-.062.605-.184a.637.637 0 00.22-.512c0-.489-.253-.736-.759-.744H1.964zm0-.776h.812c.554-.01.831-.23.831-.663 0-.242-.07-.415-.212-.52-.14-.107-.36-.161-.663-.161h-.769v1.344zm5.324.168l1.11-2.402h1.2l-1.75 3.398V43H6.732v-1.934l-1.75-3.398h1.205l1.102 2.402z"/><path fill-rule="evenodd" clip-rule="evenodd" d="M61.507 11.734a4.21 4.21 0 01-2.38 2.03c-1.046.367-2.04.32-2.982-.137-.947-.476-1.565-1.223-1.855-2.245-.294-1.029-.179-2.045.346-3.048.532-.986 1.318-1.67 2.36-2.053 1.045-.382 2.04-.347 2.986.106.965.472 1.596 1.23 1.895 2.276.295 1.035.171 2.06-.37 3.072zM59.984 1.1c-2.392-.44-4.602.063-6.631 1.5-2.018 1.427-3.269 3.354-3.762 5.78-.483 2.418-.08 4.635 1.205 6.663 1.282 2.022 3.08 3.278 5.41 3.772 2.34.488 4.538.058 6.6-1.303 2.072-1.368 3.391-3.277 3.948-5.733.554-2.479.17-4.77-1.153-6.857-1.329-2.096-3.206-3.371-5.617-3.822zM5.158 13.003V8.534l12.169-1.598v3.778l-6.39 8.965 6.889-.758v4.588L5 24.805v-3.687l6.238-8.838-6.08.725v-.002zM30.78 4.745v8.521c0 1.052-.346 1.99-1.032 2.812-.675.82-1.493 1.28-2.45 1.386-.953.104-1.767-.176-2.44-.84-.672-.662-1.008-1.51-1.008-2.547v-8.41l-4.298.574v8.339c0 2.286.744 4.17 2.242 5.658 1.504 1.476 3.337 2.11 5.504 1.893 1.594-.16 2.756-.714 3.482-1.66v.589a4.207 4.207 0 01-1.032 2.794c-.675.81-1.493 1.258-2.45 1.35 0 0-2.535.318-4.231-1.495L20.399 26l-.86.738s2.693 3.162 6.938 3.174l.002-.005c.268.006.541.003.82-.02 2.166-.185 4.035-1.18 5.598-2.991 1.572-1.805 2.366-3.894 2.377-6.263V4.146l-4.495.6zM47.974 2.54v4.044c-4.52.405-5.15 3.704-5.237 4.787l-.138 9.257-4.188.362V3.794l4.448-.584-.01.776c.196-.169.41-.315.628-.438 1.544-.978 4.497-1.01 4.497-1.01z"/></symbol>
<symbol id="i-zyro-hostinger-logo--inline" viewBox="0 0 219 40" fill="none" xmlns="http://www.w3.org/2000/svg"><path fill-rule="evenodd" clip-rule="evenodd" d="M145.324 9.685h1.876v8.31h-1.876V14.47h-3.15v3.526h-1.876v-8.31h1.876v3.177h3.15V9.685zM151.581 13.833c0 .408.05.775.15 1.103.1.328.244.61.433.846.188.236.419.417.691.545.273.128.585.192.938.192.345 0 .655-.064.932-.192a1.89 1.89 0 00.697-.545 2.52 2.52 0 00.434-.846c.1-.328.15-.695.15-1.103 0-.408-.05-.778-.15-1.11a2.519 2.519 0 00-.434-.851 1.892 1.892 0 00-.697-.546 2.195 2.195 0 00-.932-.191 2.13 2.13 0 00-.938.197 1.975 1.975 0 00-.691.552c-.189.236-.333.52-.433.851-.1.333-.15.698-.15 1.098zm6.361-.001c0 .711-.107 1.337-.319 1.876a3.86 3.86 0 01-.872 1.356 3.58 3.58 0 01-1.317.821 4.784 4.784 0 01-1.641.276 4.667 4.667 0 01-1.611-.276 3.706 3.706 0 01-1.323-.822 3.842 3.842 0 01-.89-1.355c-.216-.539-.324-1.165-.324-1.876 0-.712.112-1.337.336-1.877.225-.54.527-.993.908-1.361a3.74 3.74 0 011.323-.828 4.547 4.547 0 011.581-.276c.569 0 1.106.092 1.612.276.504.184.945.46 1.322.828.377.368.674.821.89 1.361.217.54.325 1.165.325 1.877zM162.659 16.566c.264 0 .483-.022.655-.066.173-.044.311-.104.415-.18a.609.609 0 00.217-.27c.04-.103.06-.22.06-.347 0-.272-.129-.498-.385-.678-.257-.18-.698-.374-1.323-.582a10.022 10.022 0 01-.818-.33 3.004 3.004 0 01-.733-.467 2.237 2.237 0 01-.529-.684c-.136-.268-.204-.593-.204-.977s.072-.73.216-1.037a2.22 2.22 0 01.613-.786c.265-.216.585-.381.962-.498a4.34 4.34 0 011.275-.174c.561 0 1.046.06 1.455.18.408.12.745.252 1.01.396l-.541 1.475a5.162 5.162 0 00-.776-.318 3.37 3.37 0 00-1.028-.138c-.449 0-.772.063-.968.186-.196.124-.295.314-.295.57 0 .152.037.28.109.384.072.104.174.198.306.282.133.084.285.16.457.227.172.069.363.138.572.21.432.16.809.318 1.13.474.32.156.587.338.8.546.212.207.37.451.475.731.103.28.156.62.156 1.02 0 .775-.273 1.377-.818 1.804-.545.428-1.367.642-2.465.642a6.543 6.543 0 01-1.786-.228 4.53 4.53 0 01-1.004-.408l.529-1.487a4.7 4.7 0 00.92.366c.365.108.812.162 1.341.162zM174.206 9.682v1.595h-2.513v6.715h-1.876v-6.715h-2.513V9.682h6.902zM176.289 17.992h1.876v-8.31h-1.876v8.31zM186.562 17.992a41.962 41.962 0 00-1.743-2.818 28.864 28.864 0 00-1.996-2.626v5.444h-1.852v-8.31h1.527c.264.263.557.587.878.97.32.385.647.795.98 1.23.332.436.663.888.992 1.355.328.468.637.918.926 1.35V9.681h1.863v8.31h-1.575zM195.006 11.122c-.873 0-1.505.242-1.894.725-.389.484-.583 1.145-.583 1.985 0 .407.048.777.144 1.11.097.33.241.617.433.856.193.24.433.426.722.558.288.132.625.198 1.01.198.208 0 .386-.004.535-.012.148-.008.278-.024.391-.048v-2.89h1.875v4.114c-.224.087-.585.181-1.082.281-.497.1-1.11.15-1.84.15a4.794 4.794 0 01-1.701-.288 3.564 3.564 0 01-1.305-.84 3.748 3.748 0 01-.835-1.354c-.197-.536-.295-1.147-.295-1.835 0-.696.108-1.311.325-1.847.216-.535.512-.99.89-1.361a3.743 3.743 0 011.328-.846 4.577 4.577 0 011.629-.288 6.634 6.634 0 011.882.258 3.782 3.782 0 01.884.378l-.541 1.5a4.932 4.932 0 00-.884-.355c-.333-.1-.695-.15-1.088-.15zM200.265 17.992v-8.31h5.627v1.57h-3.752v1.631h3.331v1.536h-3.331v2.002h4.029v1.571h-5.904zM210.982 11.18a5.07 5.07 0 00-.367.013l-.307.024v2.254h.53c.705 0 1.21-.088 1.515-.264.304-.175.457-.475.457-.9 0-.407-.155-.696-.463-.869-.309-.171-.764-.257-1.365-.257zm-.108-1.593c1.25 0 2.208.222 2.873.665.666.444.998 1.134.998 2.07 0 .583-.134 1.057-.402 1.42-.269.364-.656.65-1.161.858.169.208.345.446.529.713.185.268.367.548.548.84.18.292.354.596.523.911.168.316.324.626.468.93h-2.097a231.37 231.37 0 01-.464-.828 20.129 20.129 0 00-.972-1.565 8.15 8.15 0 00-.483-.642h-.926v3.035h-1.875V9.803c.408-.08.831-.136 1.268-.168.437-.032.828-.048 1.173-.048zM115.25 13.116V3.75l4.726 2.52v4.22l6.256.004 4.803 2.622H115.25zm12.262-3.398V3.75l4.853 2.458v6.33l-4.853-2.82zm0 11.448v-4.183l-6.305-.005c.006.028-4.882-2.664-4.882-2.664l16.04.075v9.366l-4.853-2.589zm-12.262 0v-6.12l4.726 2.753v5.825l-4.726-2.458z" fill="#2F1C6A"/><path fill-rule="evenodd" clip-rule="evenodd" d="M19.579 14.552l-7.84 11.013 8.451-.932v5.638L4.457 31.864v-4.53l7.653-10.859-7.46.89v-5.49L19.58 9.909v4.643zm51.416 4.646c1.29-.455 2.264-1.292 2.922-2.51.665-1.25.817-2.517.455-3.798-.366-1.294-1.143-2.232-2.327-2.815-1.162-.561-2.385-.604-3.67-.13-1.28.472-2.244 1.318-2.897 2.539-.645 1.24-.786 2.495-.426 3.77.358 1.263 1.116 2.187 2.278 2.775 1.16.565 2.38.623 3.665.17zm-7.092-13.81c2.492-1.776 5.208-2.399 8.145-1.855 2.962.559 5.267 2.136 6.9 4.728 1.626 2.582 2.096 5.414 1.416 8.48-.683 3.036-2.305 5.398-4.85 7.09-2.532 1.682-5.233 2.215-8.106 1.61-2.862-.61-5.073-2.164-6.646-4.663-1.58-2.509-2.074-5.251-1.48-8.242.605-2.998 2.14-5.382 4.62-7.149zM36.47 7.748v10.538c0 1.3-.423 2.459-1.267 3.477-.83 1.013-1.834 1.583-3.01 1.713-1.17.13-2.169-.217-2.997-1.038-.826-.818-1.238-1.867-1.238-3.15V8.89l-5.279.708V19.91c0 2.827.915 5.156 2.753 6.995 1.848 1.827 4.1 2.61 6.762 2.342 1.957-.198 3.385-.882 4.276-2.053v.728c0 1.3-.423 2.453-1.267 3.457-.83 1-1.834 1.556-3.01 1.668 0 0-3.114.393-5.197-1.849l-3.277 2.833-1.056.914s3.307 3.908 8.521 3.923l.004-.006c.33.007.664.004 1.006-.026 2.662-.228 4.957-1.457 6.877-3.698 1.931-2.23 2.908-4.815 2.92-7.744V7.008l-5.521.74zm21.123 2.272v-5s-3.628.038-5.524 1.247a4.834 4.834 0 00-.773.542l.014-.959-5.466.722v21.263l5.146-.447.17-11.448c.105-1.338.88-5.419 6.433-5.92z" fill="#000"/><path d="M96.363 16.334c0 .867-.279 1.53-.838 1.987-.554.453-1.292.679-2.215.679h-3.237V9.758h3.034c.944 0 1.682.197 2.215.59.534.39.8 1.014.8 1.873 0 .427-.125.808-.374 1.142-.246.335-.58.593-1.003.775.52.135.92.406 1.2.812.279.402.418.864.418 1.384zm-3.256-5.58h-1.803V13.7h1.835c.524 0 .948-.131 1.27-.394.32-.262.482-.628.482-1.098 0-.508-.148-.876-.445-1.104-.292-.233-.738-.35-1.34-.35zm2.025 5.593c0-.517-.14-.925-.42-1.225-.278-.3-.727-.451-1.345-.451h-2.063v3.339h2.006c.58 0 1.028-.15 1.346-.45.317-.301.476-.705.476-1.213zm8.01-1.943l2.399-4.646h1.397l-3.181 5.789V19h-1.237v-3.453l-3.18-5.79h1.409l2.393 4.647z" fill="#000"/></symbol>
<symbol id="i-zyro-logo" viewBox="0 0 60 29" xmlns="http://www.w3.org/2000/svg"><path fill-rule="evenodd" clip-rule="evenodd" d="M54.684 11.343a4.073 4.073 0 01-2.303 1.962c-1.012.355-1.974.31-2.886-.132-.916-.46-1.514-1.182-1.795-2.17-.285-.995-.173-1.977.335-2.947.515-.953 1.275-1.615 2.283-1.984 1.012-.37 1.975-.336 2.89.102.934.456 1.545 1.19 1.834 2.2.286 1.001.166 1.992-.358 2.97zM53.21 1.063c-2.314-.425-4.453.061-6.417 1.45-1.953 1.38-3.163 3.243-3.64 5.587-.468 2.338-.078 4.481 1.166 6.442 1.24 1.954 2.981 3.168 5.235 3.646 2.264.472 4.392.056 6.388-1.26 2.004-1.322 3.281-3.168 3.82-5.542.536-2.396.165-4.61-1.116-6.628-1.286-2.026-3.102-3.259-5.436-3.695zM.153 12.57V8.25l11.776-1.545v3.652l-6.184 8.666 6.667-.733v4.435L0 23.978v-3.564l6.037-8.543-5.884.7zm24.795-7.983v8.237c0 1.017-.334 1.923-.998 2.718-.654.792-1.445 1.238-2.371 1.34-.923.1-1.71-.17-2.362-.812-.65-.64-.975-1.46-.975-2.462V5.479l-4.159.554v8.061c0 2.21.72 4.031 2.169 5.469 1.456 1.427 3.23 2.04 5.327 1.83 1.542-.154 2.667-.69 3.369-1.605v.57a4.064 4.064 0 01-.998 2.701c-.654.783-1.445 1.216-2.371 1.304 0 0-2.454.308-4.095-1.444l-2.582 2.214-.832.713s2.606 3.056 6.714 3.068l.002-.005c.26.006.524.003.793-.02 2.097-.178 3.905-1.14 5.418-2.891 1.521-1.744 2.29-3.764 2.3-6.054V4.008l-4.35.58zm16.64-2.133v3.91c-4.375.391-4.985 3.58-5.068 4.627l-.134 8.948-4.053.35V3.668l4.305-.565-.01.75c.19-.163.397-.304.608-.423 1.494-.946 4.352-.976 4.352-.976z" fill="currentColor"/></symbol>
</svg>