<?xml version="1.0" encoding="UTF-8"?>
<svg version="1.1" xmlns="http://www.w3.org/2000/svg" xmlns:xlink="http://www.w3.org/1999/xlink">
<defs>

</defs>
<symbol id="i-desktop" viewBox="0 0 24 21" fill="none" xmlns="http://www.w3.org/2000/svg"><path d="M21 1H3a2 2 0 00-2 2v12a2 2 0 002 2h18a2 2 0 002-2V3a2 2 0 00-2-2z" stroke="currentColor" stroke-width="1.5"/><path d="M15.25 19.75h-6.5" stroke="currentColor" stroke-width="1.5" stroke-linecap="round"/></symbol>
<symbol id="i-mobile" viewBox="0 0 12 20" fill="none" xmlns="http://www.w3.org/2000/svg"><path d="M9 1H3a2 2 0 00-2 2v14a2 2 0 002 2h6a2 2 0 002-2V3a2 2 0 00-2-2z" stroke="currentColor" stroke-width="1.5"/><path d="M4.75 16.25h2.5" stroke="currentColor" stroke-width="1.5" stroke-linecap="round"/></symbol>
<symbol id="i-tablet" viewBox="0 0 18 24" fill="none" xmlns="http://www.w3.org/2000/svg"><path d="M15 1H3a2 2 0 00-2 2v18a2 2 0 002 2h12a2 2 0 002-2V3a2 2 0 00-2-2z" stroke="currentColor" stroke-width="1.5"/><path d="M6.75 20.25h4.5" stroke="currentColor" stroke-width="1.5" stroke-linecap="round"/></symbol>
</svg>